<mxfile host="www.draw.io" modified="2024-03-28T15:13:36.368Z" agent="Mozilla/5.0 (Windows NT 10.0; Win64; x64) AppleWebKit/537.36 (KHTML, like Gecko) Chrome/123.0.0.0 Safari/537.36" etag="Gnzbfr4uAB0SqkSbMtCO" version="24.2.0" type="device">
  <diagram name="Page-1" id="FZI9rnvhVKdGN2hq_f4T">
    <mxGraphModel dx="2620" dy="933" grid="1" gridSize="10" guides="1" tooltips="1" connect="1" arrows="1" fold="1" page="1" pageScale="1" pageWidth="827" pageHeight="1169" math="0" shadow="0">
      <root>
        <mxCell id="0" />
        <mxCell id="1" parent="0" />
        <mxCell id="RBVPOrrxZNEzKab3p2Ck-3" style="edgeStyle=orthogonalEdgeStyle;rounded=0;orthogonalLoop=1;jettySize=auto;html=1;exitX=0.5;exitY=1;exitDx=0;exitDy=0;entryX=0.5;entryY=0;entryDx=0;entryDy=0;" edge="1" parent="1" source="RBVPOrrxZNEzKab3p2Ck-1" target="RBVPOrrxZNEzKab3p2Ck-2">
          <mxGeometry relative="1" as="geometry" />
        </mxCell>
        <mxCell id="RBVPOrrxZNEzKab3p2Ck-5" style="edgeStyle=orthogonalEdgeStyle;rounded=0;orthogonalLoop=1;jettySize=auto;html=1;exitX=0.5;exitY=1;exitDx=0;exitDy=0;entryX=0.5;entryY=0;entryDx=0;entryDy=0;" edge="1" parent="1" source="RBVPOrrxZNEzKab3p2Ck-1" target="RBVPOrrxZNEzKab3p2Ck-4">
          <mxGeometry relative="1" as="geometry" />
        </mxCell>
        <mxCell id="RBVPOrrxZNEzKab3p2Ck-9" style="edgeStyle=orthogonalEdgeStyle;rounded=0;orthogonalLoop=1;jettySize=auto;html=1;exitX=0.5;exitY=1;exitDx=0;exitDy=0;entryX=0.5;entryY=0;entryDx=0;entryDy=0;" edge="1" parent="1" source="RBVPOrrxZNEzKab3p2Ck-1" target="RBVPOrrxZNEzKab3p2Ck-8">
          <mxGeometry relative="1" as="geometry" />
        </mxCell>
        <mxCell id="RBVPOrrxZNEzKab3p2Ck-13" style="edgeStyle=orthogonalEdgeStyle;rounded=0;orthogonalLoop=1;jettySize=auto;html=1;exitX=0.5;exitY=1;exitDx=0;exitDy=0;entryX=0.5;entryY=0;entryDx=0;entryDy=0;" edge="1" parent="1" source="RBVPOrrxZNEzKab3p2Ck-1" target="RBVPOrrxZNEzKab3p2Ck-12">
          <mxGeometry relative="1" as="geometry" />
        </mxCell>
        <mxCell id="RBVPOrrxZNEzKab3p2Ck-1" value="&lt;b&gt;&lt;font style=&quot;font-size: 16px;&quot;&gt;Input&lt;/font&gt;&lt;/b&gt;" style="rounded=0;whiteSpace=wrap;html=1;fillColor=#f5f5f5;fontColor=#333333;strokeColor=#666666;" vertex="1" parent="1">
          <mxGeometry x="120" y="60" width="90" height="40" as="geometry" />
        </mxCell>
        <mxCell id="RBVPOrrxZNEzKab3p2Ck-20" style="edgeStyle=orthogonalEdgeStyle;rounded=0;orthogonalLoop=1;jettySize=auto;html=1;exitX=0.5;exitY=1;exitDx=0;exitDy=0;entryX=0.5;entryY=0;entryDx=0;entryDy=0;" edge="1" parent="1" source="RBVPOrrxZNEzKab3p2Ck-2" target="RBVPOrrxZNEzKab3p2Ck-19">
          <mxGeometry relative="1" as="geometry">
            <Array as="points">
              <mxPoint x="25" y="420" />
              <mxPoint x="193" y="420" />
            </Array>
          </mxGeometry>
        </mxCell>
        <mxCell id="RBVPOrrxZNEzKab3p2Ck-2" value="&lt;b&gt;&lt;font style=&quot;font-size: 16px;&quot;&gt;3 * 3 MaxPooling, Stride 2&lt;/font&gt;&lt;/b&gt;" style="rounded=0;whiteSpace=wrap;html=1;fillColor=#d5e8d4;strokeColor=#82b366;" vertex="1" parent="1">
          <mxGeometry x="-30" y="170" width="110" height="60" as="geometry" />
        </mxCell>
        <mxCell id="RBVPOrrxZNEzKab3p2Ck-7" value="" style="edgeStyle=orthogonalEdgeStyle;rounded=0;orthogonalLoop=1;jettySize=auto;html=1;" edge="1" parent="1" source="RBVPOrrxZNEzKab3p2Ck-4" target="RBVPOrrxZNEzKab3p2Ck-6">
          <mxGeometry relative="1" as="geometry" />
        </mxCell>
        <mxCell id="RBVPOrrxZNEzKab3p2Ck-4" value="&lt;span style=&quot;font-size: 16px;&quot;&gt;&lt;b&gt;1 * 1 Conv, 32&lt;/b&gt;&lt;/span&gt;" style="rounded=0;whiteSpace=wrap;html=1;fillColor=#f8cecc;strokeColor=#b85450;" vertex="1" parent="1">
          <mxGeometry x="120" y="175" width="90" height="50" as="geometry" />
        </mxCell>
        <mxCell id="RBVPOrrxZNEzKab3p2Ck-6" value="&lt;span style=&quot;font-size: 16px;&quot;&gt;&lt;b&gt;3 * 3 Conv, 36&lt;/b&gt;&lt;/span&gt;&lt;div&gt;&lt;span style=&quot;font-size: 16px;&quot;&gt;&lt;b&gt;Stride 2&lt;/b&gt;&lt;/span&gt;&lt;/div&gt;" style="rounded=0;whiteSpace=wrap;html=1;fillColor=#f8cecc;strokeColor=#b85450;" vertex="1" parent="1">
          <mxGeometry x="115" y="260" width="100" height="60" as="geometry" />
        </mxCell>
        <mxCell id="RBVPOrrxZNEzKab3p2Ck-11" value="" style="edgeStyle=orthogonalEdgeStyle;rounded=0;orthogonalLoop=1;jettySize=auto;html=1;" edge="1" parent="1" source="RBVPOrrxZNEzKab3p2Ck-8" target="RBVPOrrxZNEzKab3p2Ck-10">
          <mxGeometry relative="1" as="geometry" />
        </mxCell>
        <mxCell id="RBVPOrrxZNEzKab3p2Ck-8" value="&lt;span style=&quot;font-size: 16px;&quot;&gt;&lt;b&gt;1 * 1 Conv, 32&lt;/b&gt;&lt;/span&gt;" style="rounded=0;whiteSpace=wrap;html=1;fillColor=#f8cecc;strokeColor=#b85450;" vertex="1" parent="1">
          <mxGeometry x="260" y="170" width="90" height="50" as="geometry" />
        </mxCell>
        <mxCell id="RBVPOrrxZNEzKab3p2Ck-22" style="edgeStyle=orthogonalEdgeStyle;rounded=0;orthogonalLoop=1;jettySize=auto;html=1;exitX=0.5;exitY=1;exitDx=0;exitDy=0;entryX=0.5;entryY=0;entryDx=0;entryDy=0;" edge="1" parent="1" source="RBVPOrrxZNEzKab3p2Ck-10" target="RBVPOrrxZNEzKab3p2Ck-19">
          <mxGeometry relative="1" as="geometry">
            <Array as="points">
              <mxPoint x="305" y="420" />
              <mxPoint x="193" y="420" />
            </Array>
          </mxGeometry>
        </mxCell>
        <mxCell id="RBVPOrrxZNEzKab3p2Ck-10" value="&lt;span style=&quot;font-size: 16px;&quot;&gt;&lt;b&gt;3 * 3 Conv, 36&lt;/b&gt;&lt;/span&gt;" style="rounded=0;whiteSpace=wrap;html=1;fillColor=#f8cecc;strokeColor=#b85450;" vertex="1" parent="1">
          <mxGeometry x="260" y="250" width="90" height="50" as="geometry" />
        </mxCell>
        <mxCell id="RBVPOrrxZNEzKab3p2Ck-15" value="" style="edgeStyle=orthogonalEdgeStyle;rounded=0;orthogonalLoop=1;jettySize=auto;html=1;" edge="1" parent="1" source="RBVPOrrxZNEzKab3p2Ck-12" target="RBVPOrrxZNEzKab3p2Ck-14">
          <mxGeometry relative="1" as="geometry" />
        </mxCell>
        <mxCell id="RBVPOrrxZNEzKab3p2Ck-12" value="&lt;span style=&quot;font-size: 16px;&quot;&gt;&lt;b&gt;1 * 1 Conv, 32&lt;/b&gt;&lt;/span&gt;" style="rounded=0;whiteSpace=wrap;html=1;fillColor=#f8cecc;strokeColor=#b85450;" vertex="1" parent="1">
          <mxGeometry x="400" y="170" width="90" height="50" as="geometry" />
        </mxCell>
        <mxCell id="RBVPOrrxZNEzKab3p2Ck-17" value="" style="edgeStyle=orthogonalEdgeStyle;rounded=0;orthogonalLoop=1;jettySize=auto;html=1;" edge="1" parent="1" source="RBVPOrrxZNEzKab3p2Ck-14" target="RBVPOrrxZNEzKab3p2Ck-16">
          <mxGeometry relative="1" as="geometry" />
        </mxCell>
        <mxCell id="RBVPOrrxZNEzKab3p2Ck-14" value="&lt;span style=&quot;font-size: 16px;&quot;&gt;&lt;b&gt;1 * 1 Conv, 36&lt;/b&gt;&lt;/span&gt;" style="rounded=0;whiteSpace=wrap;html=1;fillColor=#f8cecc;strokeColor=#b85450;" vertex="1" parent="1">
          <mxGeometry x="400" y="260" width="90" height="50" as="geometry" />
        </mxCell>
        <mxCell id="RBVPOrrxZNEzKab3p2Ck-23" style="edgeStyle=orthogonalEdgeStyle;rounded=0;orthogonalLoop=1;jettySize=auto;html=1;exitX=0.5;exitY=1;exitDx=0;exitDy=0;entryX=0.5;entryY=0;entryDx=0;entryDy=0;" edge="1" parent="1" source="RBVPOrrxZNEzKab3p2Ck-16" target="RBVPOrrxZNEzKab3p2Ck-19">
          <mxGeometry relative="1" as="geometry" />
        </mxCell>
        <mxCell id="RBVPOrrxZNEzKab3p2Ck-16" value="&lt;span style=&quot;font-size: 16px;&quot;&gt;&lt;b&gt;1 * 1 Conv, 40,&amp;nbsp;&lt;/b&gt;&lt;/span&gt;&lt;div&gt;&lt;span style=&quot;font-size: 16px;&quot;&gt;&lt;b&gt;Stride 2&lt;/b&gt;&lt;/span&gt;&lt;/div&gt;" style="rounded=0;whiteSpace=wrap;html=1;fillColor=#f8cecc;strokeColor=#b85450;" vertex="1" parent="1">
          <mxGeometry x="390" y="340" width="110" height="60" as="geometry" />
        </mxCell>
        <mxCell id="RBVPOrrxZNEzKab3p2Ck-19" value="&lt;b&gt;&lt;font style=&quot;font-size: 16px;&quot;&gt;Concatenate&lt;/font&gt;&lt;/b&gt;" style="rounded=0;whiteSpace=wrap;html=1;fillColor=#f5f5f5;fontColor=#333333;strokeColor=#666666;" vertex="1" parent="1">
          <mxGeometry x="120" y="440" width="145" height="40" as="geometry" />
        </mxCell>
        <mxCell id="RBVPOrrxZNEzKab3p2Ck-21" style="edgeStyle=orthogonalEdgeStyle;rounded=0;orthogonalLoop=1;jettySize=auto;html=1;exitX=0.5;exitY=1;exitDx=0;exitDy=0;entryX=0.5;entryY=0;entryDx=0;entryDy=0;" edge="1" parent="1" source="RBVPOrrxZNEzKab3p2Ck-6" target="RBVPOrrxZNEzKab3p2Ck-19">
          <mxGeometry relative="1" as="geometry">
            <Array as="points">
              <mxPoint x="165" y="420" />
              <mxPoint x="193" y="420" />
            </Array>
          </mxGeometry>
        </mxCell>
      </root>
    </mxGraphModel>
  </diagram>
</mxfile>
